<svg version="1.1" xmlns="http://www.w3.org/2000/svg" xmlns:xlink="http://www.w3.org/1999/xlink" width="65.125" height="34.90546" viewBox="0,0,65.125,34.90546"><defs><linearGradient x1="224.89023" y1="170.13633" x2="224.89023" y2="177.21964" gradientUnits="userSpaceOnUse" id="color-1"><stop offset="0" stop-color="#e0daf2" stop-opacity="0.46667"/><stop offset="1" stop-color="#e0daf2" stop-opacity="0"/></linearGradient><linearGradient x1="261.375" y1="174.26923" x2="261.375" y2="178.38462" gradientUnits="userSpaceOnUse" id="color-2"><stop offset="0" stop-color="#e0daf2" stop-opacity="0.46667"/><stop offset="1" stop-color="#e0daf2" stop-opacity="0"/></linearGradient></defs><g transform="translate(-207.4375,-162.54727)"><g stroke-miterlimit="10"><path d="M252.6875,180c0,-4.79798 3.88952,-8.6875 8.6875,-8.6875c4.79798,0 8.6875,3.88952 8.6875,8.6875c0,4.79798 -3.88952,8.6875 -8.6875,8.6875c-4.79798,0 -8.6875,-3.88952 -8.6875,-8.6875z" fill="#424047" stroke="#0e0720" stroke-width="5" stroke-linecap="butt"/><path d="M209.9375,180c0,-8.25817 6.69455,-14.95273 14.95273,-14.95273c8.25817,0 14.95273,6.69455 14.95273,14.95273c0,8.25817 -6.69455,14.95273 -14.95273,14.95273c-8.25817,0 -14.95273,-6.69455 -14.95273,-14.95273z" fill="#424047" stroke="#0e0720" stroke-width="5" stroke-linecap="butt"/><path d="M227.5,194.75l33.91667,-6.08333" fill="none" stroke="#0e0720" stroke-width="5" stroke-linecap="round"/><path d="M227.5,165.25l33.91666,6.08334" fill="none" stroke="#0e0720" stroke-width="5" stroke-linecap="round"/><path d="M265.96349,182.3724l-4.99224,-1.58234l-4.56706,-2.16958l0.39753,-1.01285l4.73278,1.49936l4.82652,2.25256z" fill="#0e0720" stroke="none" stroke-width="0" stroke-linecap="butt"/><path d="M263.75361,175.4141l-1.58234,4.99224l-2.16958,4.56707l-1.01285,-0.39753l1.49936,-4.73279l2.25256,-4.82652z" fill="#0e0720" stroke="none" stroke-width="0" stroke-linecap="butt"/><path d="M233.34606,184.10441l-9.15381,-2.6485l-8.40744,-3.73626l0.6765,-1.8607l8.67803,2.5095l8.88322,3.87527z" fill="#0e0720" stroke="none" stroke-width="0" stroke-linecap="butt"/><path d="M229.00593,171.54885l-2.6485,9.15381l-3.73627,8.40746l-1.8607,-0.6765l2.5095,-8.67805l3.87527,-8.88322z" fill="#0e0720" stroke="none" stroke-width="0" stroke-linecap="butt"/><path d="M231.54323,173.67798c0,1.956 -2.97865,3.54165 -6.653,3.54165c-3.67435,0 -6.653,-1.58565 -6.653,-3.54165c0,-1.956 2.97865,-3.54165 6.653,-3.54165c3.67435,0 6.653,1.58565 6.653,3.54165z" fill="url(#color-1)" stroke="none" stroke-width="0" stroke-linecap="butt"/><path d="M265.24038,176.32692c0,1.13643 -1.73059,2.05769 -3.86538,2.05769c-2.13479,0 -3.86538,-0.92126 -3.86538,-2.05769c0,-1.13643 1.73059,-2.05769 3.86538,-2.05769c2.13479,0 3.86538,0.92126 3.86538,2.05769z" fill="url(#color-2)" stroke="none" stroke-width="0" stroke-linecap="butt"/></g></g></svg>