<svg version="1.1" xmlns="http://www.w3.org/2000/svg" xmlns:xlink="http://www.w3.org/1999/xlink" width="866.33573" height="517.13549" viewBox="0,0,866.33573,517.13549"><defs><linearGradient x1="240" y1="-12.19219" x2="240" y2="372.19219" gradientUnits="userSpaceOnUse" id="color-1"><stop offset="0" stop-color="#d9ccb8"/><stop offset="1" stop-color="#bbd1a5"/></linearGradient><radialGradient cx="540.05518" cy="44.50329" r="189.44659" gradientUnits="userSpaceOnUse" id="color-2"><stop offset="0" stop-color="#deebac"/><stop offset="1" stop-color="#deebac" stop-opacity="0"/></radialGradient></defs><g transform="translate(136.83397,144.9433)"><g stroke="none" stroke-miterlimit="10"><path d="M-26.51652,372.19219v-384.38438h533.03303v384.38438z" fill="url(#color-1)" stroke-width="0"/><g><path d="M453.86287,44.50328c0,-47.6027 38.58961,-86.19231 86.19231,-86.19231c47.6027,0 86.19232,38.58961 86.19232,86.19231c0,47.6027 -38.58961,86.19232 -86.19231,86.19232c-47.6027,0 -86.19231,-38.58962 -86.19231,-86.19231z" fill="#deebac" stroke-width="0"/><path d="M350.60859,44.50327c0,-104.62846 84.81812,-189.44657 189.44658,-189.44657c104.62846,0 189.4466,84.81811 189.4466,189.44658c0,104.62846 -84.81812,189.4466 -189.44658,189.4466c-104.62846,0 -189.44657,-84.81814 -189.44657,-189.44657z" fill="url(#color-2)" stroke-width="0"/><path d="M519.43633,43.1642c-0.31009,2.4807 -2.79079,2.17061 -2.79079,2.17061l-1.80315,-0.22749c-4.59593,-0.7663 -8.97958,-1.02989 -13.63249,-1.02989c0,0 -1.67483,0 -2.28281,-1.37083c-0.27319,-0.10093 -0.52685,-0.24435 -0.75356,-0.44191c-4.43099,-3.86108 1.69883,-11.68661 6.21404,-9.54669c1.56164,0.14451 3.00734,1.03469 3.82558,3.03925c0.58056,1.4223 0.5488,2.6012 0.13652,3.55733c2.4269,0.17269 4.84515,0.44934 7.31472,0.86077l1.60133,0.19807c0,0 2.4807,0.31008 2.17061,2.79078z" fill="#474940" stroke-width="0.5"/><path d="M550.94709,42.85412c0,2.5 -2.5,2.5 -2.5,2.5l-1.46843,-0.00737c-5.95018,-0.45772 -11.90544,-0.45218 -17.82256,-1.29444c0,0 -1.92597,-0.27515 -2.13716,-2.03901c-0.78932,-2.04824 0.40611,-5.6689 1.65824,-7.73589c0,0 1.31905,-2.0728 3.39675,-0.80105c0.74829,-0.13946 1.48579,-0.09754 2.13932,0.22006c2.12529,1.03283 2.0113,3.77011 1.08991,5.97547c4.01265,0.29483 8.03885,0.38037 12.05899,0.6896l1.08494,-0.00737c0,0 2.5,0 2.5,2.5z" fill="#474940" stroke-width="0.5"/><path d="M524.72659,76.32532c-0.49029,2.45145 -2.94174,1.96117 -2.94174,1.96117l-1.99106,-0.40214c-1.15834,-0.18308 -2.39454,-0.09339 -3.47503,-0.54925c-6.09947,-2.57336 -5.28662,-7.50973 -4.38246,-12.97562c0,0 0.05827,-0.34962 0.26257,-0.76363c-6.90008,-0.55422 -13.66956,-2.09291 -19.83893,-5.29664c-0.69093,3.45168 -0.28217,7.18731 1.52175,9.57093c0.64652,0.30094 1.31703,0.92515 1.31703,2.21984c0,2.5 -2.5,2.5 -2.5,2.5l-2.0813,-0.83909c-5.87303,-6.88027 -4.05753,-19.72291 3.20101,-24.987c0,0 2.04808,-1.43366 3.48174,0.61442c1.43365,2.04808 -0.61442,3.48174 -0.61442,3.48174c-0.99034,0.6572 -1.84243,1.60579 -2.5363,2.7353c10.8154,5.93746 24.0643,5.7887 35.98001,4.64303c1.92177,-0.18478 3.88311,0.11847 5.78874,-0.19122c2.95523,-0.48027 5.80382,-1.31213 8.79403,-1.71259l0.17819,-0.10642c0,0 0.01506,-0.00502 0.04318,-0.01306c0.25712,-0.60911 0.53064,-1.22167 0.81205,-1.84144c0,0 1.03451,-2.27592 3.31042,-1.24141c2.27591,1.03451 1.24141,3.31043 1.24141,3.31043c-2.52017,5.53786 -2.3422,8.20052 0.55716,13.51409l0.73651,1.08706c0,0 1.38675,2.08013 -0.69338,3.46688c-2.08013,1.38675 -3.46688,-0.69338 -3.46688,-0.69338l-0.96573,-1.4663c-0.52803,-0.9684 -2.47944,-4.46193 -2.74491,-5.34566c-0.57097,-1.90075 -0.65132,-3.66556 -0.4176,-5.37232c-2.20508,0.42545 -4.36081,0.99861 -6.58355,1.34956c-2.0188,0.31876 -4.09277,0.03614 -6.12694,0.23433c-4.5347,0.44181 -9.19854,0.71308 -13.84984,0.60846c0.23618,0.69477 0.12596,1.35609 0.12596,1.35609c-0.23944,1.42489 -1.49041,5.36468 -0.44896,6.62319c0.85305,1.03083 3.06725,1.00662 4.08159,1.12995l2.26454,0.44898c0,0 2.45145,0.49029 1.96116,2.94174z" fill="#474940" stroke-width="0.5"/></g><path d="M-136.83397,39.94584c0,-47.27776 38.3262,-85.60398 85.60397,-85.60398c47.27776,0 85.60397,38.32621 85.60397,85.60398c0,47.27776 -38.3262,85.60397 -85.60397,85.60397c-47.27776,0 -85.60397,-38.3262 -85.60397,-85.60397z" fill="#dbe0c7" stroke-width="0"/><path d="M-84.75374,41.74868c1.4531,2.03433 -0.58124,3.48743 -0.58124,3.48743l-2.55458,1.68884c-5.49988,1.81928 -12.38651,2.31528 -18.02533,0.55471c-1.7086,-0.53346 -3.2083,-1.61825 -4.90897,-2.17646c0,0 -2.37171,-0.79057 -1.58114,-3.16228c0.79057,-2.37171 3.16228,-1.58114 3.16228,-1.58114c1.66706,0.5628 3.14599,1.61136 4.82158,2.14823c4.59183,1.47124 10.46988,0.98018 14.95043,-0.52647l1.22953,-1.01409c0,0 2.03433,-1.4531 3.48743,0.58124z" fill="#474940" stroke-width="0.5"/><path d="M-46.36839,39.00137c1.76777,1.76777 0,3.53553 0,3.53553l-0.71306,0.62252c-8.52073,5.31295 -20.32965,8.16686 -29.04343,1.77206c0,0 -2,-1.5 -0.5,-3.5c1.5,-2 3.5,-0.5 3.5,-0.5c6.79804,5.24903 16.83676,2.09644 23.39343,-2.01205l-0.17248,0.08194c0,0 1.76777,-1.76777 3.53553,0z" fill="#474940" stroke-width="0.5"/><path d="M-72.95105,74.02097c-0.27608,2.48471 -2.76079,2.20863 -2.76079,2.20863l-2.40532,-0.26741c-3.03354,-0.30338 -7.25971,0.06394 -9.6278,-2.34158c-1.97656,-2.0078 -2.03157,-4.71079 -1.79942,-7.30836c-3.07814,0.07844 -6.15786,0.03249 -9.1941,-0.36007c-2.07729,-0.26858 -4.11122,-0.82608 -6.19061,-1.07786c-1.24185,-0.15037 -2.51533,-0.05383 -3.74007,-0.3084c-1.08144,-0.22479 -2.05765,-0.81348 -3.11955,-1.11744c-0.07366,-0.02108 -0.14759,-0.04105 -0.22175,-0.06003c0.46397,1.77451 1.50113,3.40862 3.47718,4.84264l0.15862,0.03423c0,0 2.23607,1.11803 1.11803,3.3541c-1.11803,2.23607 -3.3541,1.11803 -3.3541,1.11803l-0.92255,-0.50636c-7.20122,-5.53126 -6.05495,-12.3812 -4.46526,-20.32963c0,0 0.49029,-2.45145 2.94174,-1.96116c2.45145,0.49029 1.96116,2.94174 1.96116,2.94174c-0.36699,1.83495 -0.79564,3.64371 -1.03687,5.38562c0.56926,0.10084 1.13705,0.20775 1.69231,0.36611c0.96609,0.27553 1.84351,0.83951 2.82689,1.04491c1.07537,0.22461 2.19665,0.10249 3.28755,0.23218c2.09735,0.24935 4.14883,0.8087 6.24287,1.08449c5.38158,0.70877 10.93588,0.20511 16.32648,-0.01942c1.90084,-0.07918 3.8191,0.02372 5.70208,-0.24808c3.79488,-0.54777 7.33567,-1.56291 11.0055,-2.62874c3.31403,-0.96249 6.67745,-1.79689 10.00779,-2.70493c0.87884,-0.26362 1.75767,-0.52724 2.63651,-0.79086l2.28581,-0.76223c0.4641,-1.20709 1.04961,-2.39356 1.73088,-3.54647c0,0 1.28624,-2.14373 3.42997,-0.85749c2.14373,1.28624 0.85749,3.42997 0.85749,3.42997c-1.80508,2.95235 -3.18421,6.97428 -1.66382,10.20948c0.69127,0.26991 1.4795,0.88545 1.4795,2.28923c0,2.5 -2.5,2.5 -2.5,2.5l-2.66058,-1.175c-1.36539,-2.33731 -1.92088,-4.76905 -1.85942,-7.19788c-0.78669,0.23603 -1.57338,0.47207 -2.36007,0.7081c-7.17471,1.95723 -14.31553,4.43386 -21.69302,5.47806c-2.04552,0.28952 -4.1267,0.20648 -6.19082,0.29251c-1.00842,0.04203 -2.02133,0.09163 -3.03707,0.14069c-0.21507,1.4775 -0.35503,3.27781 0.37625,3.97279c1.18263,1.12393 5.12914,0.75588 6.58979,0.90193l2.45996,0.27318c0,0 2.48471,0.27608 2.20863,2.76079z" fill="#474940" stroke-width="0.5"/></g></g></svg>