<svg version="1.1" xmlns="http://www.w3.org/2000/svg" xmlns:xlink="http://www.w3.org/1999/xlink" width="19.81996" height="40.17807" viewBox="0,0,19.81996,40.17807"><g transform="translate(-230.04529,-158.70307)"><g stroke-miterlimit="10"><path d="M232.65092,191.31548l1.60263,-15.58416l-0.16026,-12.09532l4.40227,2.89106l4.77041,0.58926l3.92285,-3.1598l-0.08123,11.6338l0.2415,15.0841l-5.39459,5.61823l-4.43799,0.07134z" fill="#8f4f4f" stroke="#471515" stroke-width="5"/><path d="M237.92918,173.24025c0,-0.69036 0.55964,-1.25 1.25,-1.25c0.69036,0 1.25,0.55964 1.25,1.25c0,0.69036 -0.55964,1.25 -1.25,1.25c-0.69036,0 -1.25,-0.55964 -1.25,-1.25z" fill="#471515" stroke="none" stroke-width="0.5"/><path d="M241.40563,173.33682c0,-0.69036 0.55964,-1.25 1.25,-1.25c0.69036,0 1.25,0.55964 1.25,1.25c0,0.69036 -0.55964,1.25 -1.25,1.25c-0.69036,0 -1.25,-0.55964 -1.25,-1.25z" fill="#471515" stroke="none" stroke-width="0.5"/></g></g></svg>