<svg version="1.1" xmlns="http://www.w3.org/2000/svg" xmlns:xlink="http://www.w3.org/1999/xlink" width="81.94318" height="89.36364" viewBox="0,0,81.94318,89.36364"><g transform="translate(-219.09659,-131.125)"><g stroke-miterlimit="10"><path d="M237.19679,144.61611h7.10642v70.76778h-7.10642z" fill="#424047" stroke="#0e0720" stroke-width="5" stroke-linecap="butt"/><path d="M221.59659,217.98864v-10.375h38.30682v10.375z" fill="#424047" stroke="#0e0720" stroke-width="5" stroke-linecap="butt"/><path d="M237.19679,144.61611h7.10642v62.99753h15.6002v10.375h-38.30682v-10.375h15.6002z" fill="#424047" stroke="#0e0720" stroke-width="5" stroke-linecap="butt"/><path d="M232.0625,142.3125c0,-4.79798 3.88952,-8.6875 8.6875,-8.6875c4.79798,0 8.6875,3.88952 8.6875,8.6875c0,4.79798 -3.88952,8.6875 -8.6875,8.6875c-4.79798,0 -8.6875,-3.88952 -8.6875,-8.6875z" fill="#424047" stroke="#0e0720" stroke-width="5" stroke-linecap="butt"/><path d="M244.3125,189.25v-36.125c0,0 9.01897,-3 15.23828,-3c5.31129,0 16.09072,3.34695 24.92952,4.14082c7.79633,0.70024 14.05947,-1.14082 14.05947,-1.14082v36.125c0,0 -6.79988,1.17952 -14.9373,0.48807c-8.04379,-0.6835 -17.39692,-3.23807 -22.37022,-3.23807c-6.82883,0 -16.91975,2.75 -16.91975,2.75z" fill="#e4e3e6" stroke="#0e0720" stroke-width="5" stroke-linecap="butt"/><path d="M245.20578,158.25c0,0 6.80806,-2.75 11.98044,-2.75c5.19218,0 16.92083,3.38202 26.40042,4.29591c7.87476,0.75918 14.05985,-1.54591 14.05985,-1.54591" fill="none" stroke="#ca5555" stroke-width="1.5" stroke-linecap="round"/><path d="M245.31087,160.97467c0,0 6.80806,-2.75 11.98044,-2.75c5.19219,0 16.92083,3.38201 26.40043,4.29591c7.87476,0.75917 14.05985,-1.54591 14.05985,-1.54591" fill="none" stroke="#ca5555" stroke-width="1.5" stroke-linecap="round"/><path d="M245.25832,180.25c0,0 6.80806,-2.75 11.98044,-2.75c5.19219,0 16.92083,3.38201 26.40043,4.29591c7.87476,0.75917 14.05985,-1.54591 14.05985,-1.54591" fill="none" stroke="#ca5555" stroke-width="1.5" stroke-linecap="round"/><path d="M245.36342,182.97467c0,0 6.80806,-2.75 11.98044,-2.75c5.19219,0 16.92083,3.38202 26.40043,4.29591c7.87476,0.75917 14.05985,-1.54591 14.05985,-1.54591" fill="none" stroke="#ca5555" stroke-width="1.5" stroke-linecap="round"/><path d="M244.3125,189.25v-36.125c0,0 9.01897,-3 15.23828,-3c5.31129,0 16.09072,3.34695 24.92952,4.14082c7.79633,0.70024 14.05947,-1.14082 14.05947,-1.14082v36.125c0,0 -6.79988,1.17952 -14.9373,0.48807c-8.04379,-0.6835 -17.39692,-3.23807 -22.37022,-3.23807c-6.82883,0 -16.91975,2.75 -16.91975,2.75z" fill="none" stroke="#0e0720" stroke-width="5" stroke-linecap="butt"/><path d="M267.80025,175.34035l0.7907,-7.59933l-0.07907,-5.97653l2.17199,1.67241l2.35362,0.55733l1.93545,-1.33975l-0.04008,5.73533l0.11915,7.45567l-2.66158,2.47044l-2.18961,-0.21282z" fill="#ca5555" stroke="#471515" stroke-width="0" stroke-linecap="butt"/></g></g></svg>