<svg version="1.1" xmlns="http://www.w3.org/2000/svg" xmlns:xlink="http://www.w3.org/1999/xlink" width="33" height="40.31909" viewBox="0,0,33,40.31909"><g transform="translate(-223.5,-159.84047)"><g stroke-miterlimit="10"><path d="M244.9375,197.65957h-9.875v-33.87939h9.875v8.18379v17.51179z" fill="#8f4e4e" stroke="#471515" stroke-width="5"/><path d="M254,183.34487h-28v-21.00439h28v5.07375v10.85688z" fill="#8f4e4e" stroke="#471515" stroke-width="5"/><path d="M234.33075,179.4509c0,0 0.3204,-0.16056 0.08673,-0.80499c-0.14611,-0.40294 -0.36927,-0.84809 -0.51639,-1.37134c-0.23378,-0.83146 -0.51257,-1.73727 -0.84266,-2.68046c-0.35505,-1.01454 -0.13153,-2.21197 -0.09274,-2.6485c0.04494,-0.50573 0.55015,-0.94455 0.55015,-0.94455c0,0 -0.26774,-1.44767 -0.27101,-1.60361c-0.00763,-0.36392 0.43424,-1.33858 0.43424,-1.33858l-0.23067,-1.84698l1.42477,1.20503l1.56981,-0.07313l1.55818,-1.16458l-0.05488,1.80517c0,0 0.31738,0.3112 0.3303,0.59144c0.00753,0.16327 -0.18145,2.02121 -0.18145,2.02121c0,0 0.46273,1.27318 0.61185,2.19216c0.1153,0.71056 0.36267,2.71694 0.12078,4.02263c-0.14228,0.76803 -0.33964,1.69659 -0.61854,2.08831c-0.55695,0.78224 -0.53485,0.58347 -0.53485,0.58347z" fill="#471515" stroke="none" stroke-width="0"/><path d="M243.05424,176.69314v-2.86622h-2.82488l4.70814,-4.70814l4.70814,4.70814l-2.82488,0v2.86622z" fill="#471515" stroke="none" stroke-width="0"/></g></g></svg>