<svg version="1.1" xmlns="http://www.w3.org/2000/svg" xmlns:xlink="http://www.w3.org/1999/xlink" width="57.66663" height="174.9101" viewBox="0,0,57.66663,174.9101"><g transform="translate(-211.16668,-146.91189)"><g stroke-miterlimit="10"><path d="M264.58331,180c0,6.1762 -10.06354,33.19146 -10.05606,57.68783c0.01181,38.67354 7.48606,78.83005 -15.00001,79.88416c-13.75654,0.64488 -9.02671,-48.59664 -11.67838,-79.00255c-2.97063,-34.06339 -12.43218,-50.15423 -12.43218,-58.56944c0,-15.92685 11.00632,-28.83811 24.58331,-28.83811c13.57699,0 24.58331,12.91126 24.58331,28.83811z" fill="#8cda8d" stroke="#374b3a" stroke-width="8.5"/><path d="M229.83226,167.31675c0.17756,-0.1522 0.35199,-0.29101 0.52314,-0.41703c0.3588,-0.39872 0.84405,-0.68139 1.3926,-0.78487c3.73959,-1.42338 5.25229,3.88842 2.57812,6.69576c-3.18367,3.34222 -5.85205,-2.77299 -4.50466,-5.29934z" fill="#374b3a" stroke="none" stroke-width="0.5"/><path d="M242.57143,171.14286c-0.57297,-3.8263 5.69084,-6.54234 6.24233,-3.78488c0.3829,0.43924 0.61481,1.01355 0.61481,1.64202c0,0.21246 -0.0265,0.41873 -0.07638,0.61569c-0.74754,4.12276 -5.99725,6.75949 -6.78076,1.52716z" fill="#374b3a" stroke="none" stroke-width="0.5"/><path d="M237.1069,185.49989c-0.12469,0.33585 -0.12817,0.60876 0.17688,0.74519c1.07021,0.47862 2.49125,1.13386 2.57337,2.61207c0.18616,3.35091 -4.93844,2.51966 -6.61803,1.37893c-0.66727,-0.45319 -1.26123,-4.01775 -0.83107,-6.41949c-1.7905,-0.2821 -3.48476,-0.66404 -4.89769,-1.16316c0.52718,0.45761 1.00541,0.98566 0.79094,1.77205c-0.4373,1.60341 -2.46156,2.87414 -3.91312,1.95656c-2.87509,-1.81745 -3.87588,-5.48222 -2.29686,-8.49021c0.39149,-0.74579 1.40773,-3.5056 2.63914,-3.16976c0.20028,-0.05169 0.41027,-0.0792 0.6267,-0.0792c1.1564,0 2.1294,0.78515 2.41504,1.85143c1.6156,0.75417 3.37391,2.04633 5.30453,2.4913c3.29646,0.75976 7.76524,0.7225 11.01214,0.38565c1.68747,-0.17506 4.57623,-2.1355 6.65645,-2.13016c0.21255,-0.99688 0.49922,-2.14726 0.97299,-2.28051l1.7817,-0.74628c1.99284,1.48899 2.40393,2.46832 2.23897,3.61345c-0.15368,1.06685 -0.80736,2.2776 -1.14784,4.17845c-0.20149,1.12491 3.71935,0.39162 2.00208,3.82614c-0.88412,1.76824 -2.07917,1.51198 -3.3541,1.11803c-2.48008,-0.76633 -3.46304,-2.26356 -3.59529,-4.08845c-1.23488,0.58672 -2.53222,1.00194 -3.35325,1.22409c-1.31419,0.35558 -4.72977,0.50549 -8.52146,0.28824c-0.11834,0.43352 -0.35044,0.82009 -0.66222,1.12566z" fill="#374b3a" stroke="none" stroke-width="0.5"/></g></g></svg>