<svg version="1.1" xmlns="http://www.w3.org/2000/svg" xmlns:xlink="http://www.w3.org/1999/xlink" width="22.375" height="22.375" viewBox="0,0,22.375,22.375"><defs><linearGradient x1="240" y1="174.26923" x2="240" y2="178.38462" gradientUnits="userSpaceOnUse" id="color-1"><stop offset="0" stop-color="#e0daf2" stop-opacity="0.46667"/><stop offset="1" stop-color="#e0daf2" stop-opacity="0"/></linearGradient></defs><g transform="translate(-228.8125,-168.8125)"><g stroke-miterlimit="10"><path d="M231.3125,180c0,-4.79798 3.88952,-8.6875 8.6875,-8.6875c4.79798,0 8.6875,3.88952 8.6875,8.6875c0,4.79798 -3.88952,8.6875 -8.6875,8.6875c-4.79798,0 -8.6875,-3.88952 -8.6875,-8.6875z" fill="#424047" stroke="#0e0720" stroke-width="5"/><path d="M239.46474,185.13462l-0.35099,-5.22523l0.35099,-5.044h1.08807l0.33344,4.95339l-0.33344,5.31584z" fill="#0e0720" stroke="none" stroke-width="0"/><path d="M245.13462,180.53526l-5.22523,0.35099l-5.04401,-0.35099v-1.08807l4.9534,-0.33344l5.31584,0.33344z" fill="#0e0720" stroke="none" stroke-width="0"/><path d="M243.86538,176.32692c0,1.13643 -1.73059,2.05769 -3.86538,2.05769c-2.13479,0 -3.86538,-0.92126 -3.86538,-2.05769c0,-1.13643 1.73059,-2.05769 3.86538,-2.05769c2.13479,0 3.86538,0.92126 3.86538,2.05769z" fill="url(#color-1)" stroke="none" stroke-width="0"/></g></g></svg>