<svg version="1.1" xmlns="http://www.w3.org/2000/svg" xmlns:xlink="http://www.w3.org/1999/xlink" width="574.51429" height="433.14727" viewBox="0,0,574.51429,433.14727"><g transform="translate(26.51649,60.95508)"><g stroke="none" stroke-miterlimit="10"><path d="M-26.51649,372.19219v-384.38438h533.03303v384.38438z" fill="#2a4161" stroke-width="0"/><path d="M81.87188,51.80075c0,2.5 -2.5,2.5 -2.5,2.5c-1.63432,0 -4.96246,-0.64936 -6.45413,0.39259c-1.61483,1.12798 -2.51381,4.45637 -3.04241,6.19886c-1.54032,5.07759 -1.95917,10.99313 -2.91392,16.24428l-0.01313,0.01974l0.00893,0.00179l-0.5315,2.65752c-0.11811,0.65762 -0.4934,1.22597 -1.01804,1.59724c-0.01176,0.12299 -0.02378,0.24599 -0.03607,0.36899l0.0124,0.29183c0,0 0,2.5 -2.5,2.5c-2.5,0 -2.5,-2.5 -2.5,-2.5l0.01241,-0.78935c0.0268,-0.26794 0.05222,-0.53585 0.07635,-0.80374c-0.36738,-0.30643 -0.64548,-0.71629 -0.78958,-1.18484l-0.79265,-2.37795l0.05777,-0.01926l-0.10231,-0.12964c-0.73455,-3.66114 -1.47487,-7.31656 -2.19844,-10.9676c-1.03807,-5.23792 0.10373,-11.42273 -6.3049,-13.02812c-0.39971,-0.03322 -0.79958,-0.06798 -1.19965,-0.10435c0,0 -0.16375,-0.01489 -0.40344,-0.07902c-0.13377,0.0075 -0.26783,0.01841 -0.40196,0.03008l-0.23646,0.03408c0,0 -0.15774,0.02253 -0.39927,0.0164c-0.07496,0.00415 -0.14983,0.00721 -0.22458,0.00872c0,0 -2.5,0 -2.5,-2.5c0,-2.5 2.5,-2.5 2.5,-2.5c0.02804,0.0004 0.05611,0.00086 0.0842,0.00139l1.82938,-0.25928c2.98643,-0.29518 6.79381,-0.63923 9.41396,-2.30244c5.7161,-3.62844 5.35768,-11.70243 4.83294,-17.41796c0,0 -0.10637,-1.17 0.62879,-1.97881c0.19094,-0.7405 0.75214,-1.8287 2.40153,-1.8287c0.8089,0 1.35606,0.26173 1.72619,0.61581c2.064,0.45931 1.84257,2.67353 1.84257,2.67353c-0.37123,3.71235 -2.38002,10.98205 -0.09068,14.38421c0.4438,0.65953 1.22296,1.03112 1.72187,1.65c1.7441,2.16347 1.39204,3.25055 4.23635,3.66353l3.40821,1.71066c0.32375,0.08459 0.71218,0.23998 1.04678,0.5254l0.50159,0.25176c-0.0624,0.02716 -0.1247,0.05465 -0.18688,0.08244c0.11456,0.15255 0.21399,0.32933 0.2906,0.53417c0.39948,0.36962 0.70716,0.93898 0.70716,1.81602z" fill="#ffffff" stroke-width="0.5"/><path d="M130.11604,83.05081c0,1.6628 -1.6628,1.6628 -1.6628,1.6628c-1.08702,0 -3.30064,-0.4319 -4.29278,0.26112c-1.07406,0.75024 -1.67199,2.96403 -2.02357,4.123c-1.0245,3.37721 -1.30308,7.31176 -1.93811,10.80442l-0.00874,0.01313l0.00594,0.00119l-0.35351,1.76757c-0.07856,0.4374 -0.32817,0.81542 -0.67712,1.06236c-0.00782,0.0818 -0.01582,0.16361 -0.02399,0.24542l0.00825,0.1941c0,0 0,1.6628 -1.6628,1.6628c-1.6628,0 -1.6628,-1.6628 -1.6628,-1.6628l0.00825,-0.52501c0.01783,-0.17821 0.03473,-0.35641 0.05079,-0.53459c-0.24435,-0.20382 -0.42932,-0.47642 -0.52517,-0.78806l-0.52721,-1.58162l0.03842,-0.01281l-0.06805,-0.08623c-0.48856,-2.4351 -0.98097,-4.8664 -1.46223,-7.29478c-0.69044,-3.48385 0.069,-7.5975 -4.19352,-8.66528c-0.26585,-0.0221 -0.53182,-0.04522 -0.79791,-0.06941c0,0 -0.10891,-0.0099 -0.26834,-0.05256c-0.08898,0.00499 -0.17814,0.01224 -0.26735,0.02001l-0.15728,0.02267c0,0 -0.10492,0.01499 -0.26556,0.01091c-0.04986,0.00276 -0.09966,0.0048 -0.14937,0.0058c0,0 -1.6628,0 -1.6628,-1.6628c0,-1.6628 1.6628,-1.6628 1.6628,-1.6628c0.01865,0.00027 0.03732,0.00057 0.05601,0.00092l1.21676,-0.17245c1.98634,-0.19633 4.51871,-0.42517 6.26143,-1.5314c3.8019,-2.41335 3.56351,-7.78353 3.21449,-11.58505c0,0 -0.07075,-0.7782 0.41822,-1.31615c0.127,-0.49253 0.50026,-1.2163 1.59731,-1.2163c0.53801,0 0.90195,0.17408 1.14813,0.40959c1.37281,0.30549 1.22553,1.77822 1.22553,1.77822c-0.24692,2.46917 -1.583,7.30439 -0.06031,9.56724c0.29518,0.43866 0.81342,0.68582 1.14526,1.09745c1.16003,1.43897 0.92588,2.16201 2.81768,2.43669l2.26688,1.1378c0.21533,0.05626 0.47368,0.15961 0.69624,0.34946l0.33362,0.16745c-0.04151,0.01806 -0.08294,0.03635 -0.1243,0.05484c0.0762,0.10146 0.14233,0.21904 0.19328,0.35529c0.2657,0.24584 0.47035,0.62454 0.47035,1.20787z" fill="#ffffff" stroke-width="0.5"/><path d="M168.12614,39.43577c0,1.1288 -1.1288,1.1288 -1.1288,1.1288c-0.73793,0 -2.24066,-0.2932 -2.91418,0.17726c-0.72913,0.50931 -1.13504,2.01215 -1.37371,2.79892c-0.69549,2.29264 -0.8846,4.96363 -1.3157,7.33464l-0.00593,0.00891l0.00403,0.0008l-0.23999,1.19992c-0.05333,0.29693 -0.22278,0.55356 -0.45967,0.72119c-0.00531,0.05553 -0.01074,0.11106 -0.01629,0.1666l0.0056,0.13177c0,0 0,1.1288 -1.1288,1.1288c-1.1288,0 -1.1288,-1.1288 -1.1288,-1.1288l0.0056,-0.35641c0.0121,-0.12098 0.02358,-0.24195 0.03448,-0.36291c-0.16588,-0.13836 -0.29145,-0.32342 -0.35651,-0.53498l-0.3579,-1.07369l0.02609,-0.0087l-0.0462,-0.05853c-0.33166,-1.65308 -0.66594,-3.30359 -0.99264,-4.9521c-0.46871,-2.36503 0.04684,-5.1576 -2.8468,-5.88247c-0.18047,-0.015 -0.36103,-0.0307 -0.54167,-0.04712c0,0 -0.07393,-0.00672 -0.18216,-0.03568c-0.0604,0.00339 -0.12093,0.00831 -0.18149,0.01358l-0.10677,0.01539c0,0 -0.07123,0.01018 -0.18028,0.00741c-0.03385,0.00187 -0.06765,0.00326 -0.1014,0.00394c0,0 -1.1288,0 -1.1288,-1.1288c0,-1.1288 1.1288,-1.1288 1.1288,-1.1288c0.01266,0.00018 0.02534,0.00039 0.03802,0.00063l0.826,-0.11707c1.34844,-0.13328 3.06755,-0.28863 4.2506,-1.0396c2.58094,-1.63832 2.41911,-5.28389 2.18218,-7.86457c0,0 -0.04803,-0.52829 0.28391,-0.89348c0.08621,-0.33435 0.33961,-0.8257 1.08434,-0.8257c0.36523,0 0.61229,0.11818 0.77941,0.27805c0.93194,0.20739 0.83196,1.20716 0.83196,1.20716c-0.16762,1.67621 -1.07463,4.95862 -0.04094,6.49477c0.20038,0.29779 0.55219,0.46557 0.77746,0.74501c0.7875,0.97686 0.62854,1.4677 1.9128,1.65416l1.53888,0.7724c0.14618,0.0382 0.32156,0.10836 0.47264,0.23723l0.22648,0.11367c-0.02818,0.01226 -0.0563,0.02468 -0.08438,0.03723c0.05173,0.06888 0.09662,0.1487 0.13121,0.24119c0.18038,0.16689 0.3193,0.42397 0.3193,0.81997z" fill="#ffffff" stroke-width="0.5"/><path d="M222.48596,71.21609c0,2.5 -2.5,2.5 -2.5,2.5c-1.63432,0 -4.96246,-0.64936 -6.45413,0.39259c-1.61483,1.12798 -2.51381,4.45638 -3.04241,6.19887c-1.54032,5.07759 -1.95916,10.99312 -2.91392,16.24428l-0.01313,0.01974l0.00892,0.00178l-0.5315,2.65751c-0.11811,0.65762 -0.4934,1.22598 -1.01804,1.59724c-0.01175,0.12299 -0.02378,0.24599 -0.03607,0.36899l0.0124,0.29183c0,0 0,2.5 -2.5,2.5c-2.5,0 -2.5,-2.5 -2.5,-2.5l0.01241,-0.78935c0.02681,-0.26794 0.05222,-0.53585 0.07636,-0.80374c-0.36738,-0.30643 -0.64548,-0.71629 -0.78958,-1.18484l-0.79265,-2.37794l0.05777,-0.01926l-0.10231,-0.12964c-0.73454,-3.66114 -1.47487,-7.31657 -2.19844,-10.9676c-1.03807,-5.23792 0.10374,-11.42273 -6.3049,-13.02812c-0.39971,-0.03322 -0.79958,-0.06798 -1.19965,-0.10435c0,0 -0.16375,-0.01489 -0.40344,-0.07902c-0.13378,0.0075 -0.26784,0.01841 -0.40196,0.03008l-0.23647,0.03408c0,0 -0.15774,0.02254 -0.39927,0.0164c-0.07496,0.00415 -0.14983,0.00722 -0.22457,0.00872c0,0 -2.5,0 -2.5,-2.5c0,-2.5 2.5,-2.5 2.5,-2.5c0.02804,0.0004 0.05611,0.00086 0.0842,0.00139l1.82938,-0.25928c2.98643,-0.29518 6.79381,-0.63923 9.41396,-2.30244c5.7161,-3.62844 5.35769,-11.70243 4.83294,-17.41795c0,0 -0.10637,-1.17001 0.62879,-1.97881c0.19094,-0.7405 0.75214,-1.8287 2.40153,-1.8287c0.8089,0 1.35606,0.26173 1.72619,0.61581c2.064,0.45931 1.84257,2.67353 1.84257,2.67353c-0.37124,3.71235 -2.38002,10.98205 -0.09068,14.38421c0.4438,0.65953 1.22296,1.03112 1.72188,1.65c1.74409,2.16347 1.39204,3.25055 4.23635,3.66353l3.40821,1.71067c0.32375,0.08459 0.71218,0.23998 1.04678,0.5254l0.50159,0.25176c-0.06241,0.02716 -0.1247,0.05465 -0.18688,0.08245c0.11456,0.15255 0.21399,0.32933 0.2906,0.53417c0.39948,0.36962 0.70716,0.93898 0.70716,1.81602z" fill="#ffffff" stroke-width="0.5"/><path d="M248.32936,23.5505c0,1.1288 -1.1288,1.1288 -1.1288,1.1288c-0.73793,0 -2.24066,-0.2932 -2.91417,0.17726c-0.72913,0.50931 -1.13504,2.01215 -1.37372,2.79892c-0.69548,2.29264 -0.8846,4.96363 -1.3157,7.33464l-0.00593,0.00891l0.00403,0.0008l-0.23998,1.19993c-0.05333,0.29693 -0.22278,0.55356 -0.45967,0.72119c-0.00531,0.05554 -0.01074,0.11106 -0.01629,0.16661l0.0056,0.13177c0,0 0,1.1288 -1.1288,1.1288c-1.1288,0 -1.1288,-1.1288 -1.1288,-1.1288l0.00561,-0.35641c0.0121,-0.12098 0.02357,-0.24195 0.03447,-0.36291c-0.16588,-0.13836 -0.29144,-0.32342 -0.35651,-0.53498l-0.3579,-1.07369l0.02608,-0.0087l-0.04619,-0.05853c-0.33166,-1.65308 -0.66594,-3.30358 -0.99265,-4.95211c-0.46871,-2.36503 0.04684,-5.1576 -2.8468,-5.88247c-0.18048,-0.01501 -0.36103,-0.0307 -0.54166,-0.04712c0,0 -0.07394,-0.00672 -0.18216,-0.03568c-0.0604,0.00339 -0.12093,0.00831 -0.18149,0.01358l-0.10677,0.01539c0,0 -0.07122,0.01017 -0.18028,0.0074c-0.03385,0.00187 -0.06766,0.00326 -0.1014,0.00394c0,0 -1.1288,0 -1.1288,-1.1288c0,-1.1288 1.1288,-1.1288 1.1288,-1.1288c0.01266,0.00018 0.02534,0.00039 0.03802,0.00063l0.826,-0.11707c1.34844,-0.13327 3.06755,-0.28863 4.2506,-1.0396c2.58094,-1.63832 2.41911,-5.28389 2.18218,-7.86457c0,0 -0.04802,-0.52829 0.28391,-0.89348c0.08622,-0.33435 0.33961,-0.82569 1.08435,-0.82569c0.36524,0 0.61229,0.11818 0.77941,0.27805c0.93194,0.20738 0.83196,1.20716 0.83196,1.20716c-0.16762,1.6762 -1.07462,4.95862 -0.04094,6.49477c0.20039,0.29779 0.55219,0.46558 0.77746,0.74501c0.7875,0.97686 0.62853,1.46769 1.9128,1.65416l1.53888,0.7724c0.14618,0.0382 0.32156,0.10836 0.47265,0.23723l0.22648,0.11368c-0.02818,0.01226 -0.05631,0.02468 -0.08438,0.03722c0.05173,0.06888 0.09662,0.1487 0.13121,0.24119c0.18037,0.16689 0.31929,0.42396 0.31929,0.81997z" fill="#ffffff" stroke-width="0.5"/><path d="M376.78986,24.6489c0,-47.27776 38.3262,-85.60398 85.60397,-85.60398c47.27776,0 85.60397,38.32621 85.60397,85.60398c0,47.27776 -38.3262,85.60397 -85.60397,85.60397c-47.27776,0 -85.60397,-38.3262 -85.60397,-85.60397z" fill="#dbe0c7" stroke-width="0"/><path d="M428.87009,26.45174c1.4531,2.03433 -0.58124,3.48743 -0.58124,3.48743l-2.55458,1.68884c-5.49988,1.81928 -12.38651,2.31528 -18.02533,0.55471c-1.7086,-0.53346 -3.2083,-1.61825 -4.90897,-2.17646c0,0 -2.37171,-0.79057 -1.58114,-3.16228c0.79057,-2.37171 3.16228,-1.58114 3.16228,-1.58114c1.66706,0.5628 3.14599,1.61136 4.82158,2.14823c4.59183,1.47124 10.46988,0.98018 14.95043,-0.52647l1.22953,-1.01409c0,0 2.03433,-1.4531 3.48743,0.58124z" fill="#474940" stroke-width="0.5"/><path d="M467.25544,23.70443c1.76777,1.76777 0,3.53553 0,3.53553l-0.71306,0.62252c-8.52073,5.31295 -20.32965,8.16686 -29.04343,1.77206c0,0 -2,-1.5 -0.5,-3.5c1.5,-2 3.5,-0.5 3.5,-0.5c6.79804,5.24903 16.83676,2.09644 23.39343,-2.01205l-0.17248,0.08194c0,0 1.76777,-1.76777 3.53553,0z" fill="#474940" stroke-width="0.5"/><path d="M440.67278,58.72403c-0.27608,2.48471 -2.76079,2.20863 -2.76079,2.20863l-2.40532,-0.26741c-3.03354,-0.30338 -7.25971,0.06394 -9.6278,-2.34158c-1.97656,-2.0078 -2.03157,-4.71079 -1.79942,-7.30836c-3.07814,0.07844 -6.15786,0.03249 -9.1941,-0.36007c-2.07729,-0.26858 -4.11122,-0.82608 -6.19061,-1.07786c-1.24185,-0.15037 -2.51533,-0.05383 -3.74007,-0.3084c-1.08144,-0.22479 -2.05765,-0.81348 -3.11955,-1.11744c-0.07366,-0.02108 -0.14759,-0.04105 -0.22175,-0.06003c0.46397,1.77451 1.50113,3.40862 3.47718,4.84264l0.15862,0.03423c0,0 2.23607,1.11803 1.11803,3.3541c-1.11803,2.23607 -3.3541,1.11803 -3.3541,1.11803l-0.92255,-0.50636c-7.20122,-5.53126 -6.05495,-12.3812 -4.46526,-20.32963c0,0 0.49029,-2.45145 2.94174,-1.96116c2.45145,0.49029 1.96116,2.94174 1.96116,2.94174c-0.36699,1.83495 -0.79564,3.64371 -1.03687,5.38562c0.56926,0.10084 1.13705,0.20775 1.69231,0.36611c0.96609,0.27553 1.84351,0.83951 2.82689,1.04491c1.07537,0.22461 2.19665,0.10249 3.28755,0.23218c2.09735,0.24935 4.14883,0.8087 6.24287,1.08449c5.38158,0.70877 10.93588,0.20511 16.32648,-0.01942c1.90084,-0.07918 3.8191,0.02372 5.70208,-0.24808c3.79488,-0.54777 7.33567,-1.56291 11.0055,-2.62874c3.31403,-0.96249 6.67745,-1.79689 10.00779,-2.70493c0.87884,-0.26362 1.75767,-0.52724 2.63651,-0.79086l2.28581,-0.76223c0.4641,-1.20709 1.04961,-2.39356 1.73088,-3.54647c0,0 1.28624,-2.14373 3.42997,-0.85749c2.14373,1.28624 0.85749,3.42997 0.85749,3.42997c-1.80508,2.95235 -3.18421,6.97428 -1.66382,10.20948c0.69127,0.26991 1.4795,0.88545 1.4795,2.28923c0,2.5 -2.5,2.5 -2.5,2.5l-2.66058,-1.175c-1.36539,-2.33731 -1.92088,-4.76905 -1.85942,-7.19788c-0.78669,0.23603 -1.57338,0.47207 -2.36007,0.7081c-7.17471,1.95723 -14.31553,4.43386 -21.69302,5.47806c-2.04552,0.28952 -4.1267,0.20648 -6.19082,0.29251c-1.00842,0.04203 -2.02133,0.09163 -3.03707,0.14069c-0.21507,1.4775 -0.35503,3.27781 0.37625,3.97279c1.18263,1.12393 5.12914,0.75588 6.58979,0.90193l2.45996,0.27318c0,0 2.48471,0.27608 2.20863,2.76079z" fill="#474940" stroke-width="0.5"/></g></g></svg>