<svg version="1.1" xmlns="http://www.w3.org/2000/svg" xmlns:xlink="http://www.w3.org/1999/xlink" width="24.1875" height="24.1875" viewBox="0,0,24.1875,24.1875"><g transform="translate(-227.90625,-167.90625)"><g stroke-miterlimit="10"><path d="M230.40625,180c0,-5.29848 4.29527,-9.59375 9.59375,-9.59375c5.29848,0 9.59375,4.29527 9.59375,9.59375c0,5.29848 -4.29527,9.59375 -9.59375,9.59375c-5.29848,0 -9.59375,-4.29527 -9.59375,-9.59375z" fill="#e9d472" stroke="#64311b" stroke-width="5"/><path d="M237.36519,178.29093c0,-0.52438 0.4251,-0.94948 0.94948,-0.94948c0.52438,0 0.94948,0.4251 0.94948,0.94948c0,0.52438 -0.4251,0.94948 -0.94948,0.94948c-0.52438,0 -0.94948,-0.4251 -0.94948,-0.94948z" fill="#64311b" stroke="none" stroke-width="0.5"/><path d="M240.92574,178.33841c0,-0.52438 0.4251,-0.94948 0.94948,-0.94948c0.52438,0 0.94948,0.4251 0.94948,0.94948c0,0.52438 -0.4251,0.94948 -0.94948,0.94948c-0.52438,0 -0.94948,-0.4251 -0.94948,-0.94948z" fill="#64311b" stroke="none" stroke-width="0.5"/><path d="M236.1546,178.7182l0.0068,0.02718c0.0714,0.13334 0.11189,0.28572 0.11189,0.44756v0.033l0.00592,0.00887l-0.00592,0.02662v0.02646l-0.0089,0.03561c-0.00923,0.06712 -0.02548,0.13201 -0.04798,0.19389l-0.03807,0.17131v0.22677l0.00856,0.00048l0.0794,0.09263l0.10293,0.0655l0.00543,0.02715l0.05935,0.05087l0.01934,0.0116l0.11107,0.02777l0.04186,-0.00289l0.02026,0.01842l0.02656,0.00664l0.02082,0.03643l0.08897,0.08088l0.02999,0.00666l0.02366,0.01183l0.02646,0.00661l0.00529,0.00926l0.15815,0.07907l0.07958,0.0199l0.13593,0.01046h0.04832l0.14807,0.03702l0.15218,0.01171l0.10783,0.03594l0.04112,0.01028h0.02554l0.14807,0.03702l0.13593,0.01046h0.04832l0.14807,0.03702l0.15218,0.01171l0.0813,0.0271h0.0861l0.0765,0.01912h0.02554l0.1134,0.02835h0.11689l0.0765,0.01912h2.68493l0.13593,-0.01046l0.14807,-0.03702h0.02646l0.18916,-0.04204l0.21165,-0.05291l0.02646,0l0.02662,-0.00592l0.00887,0.00592l0.10693,0l0.0429,-0.00953l0.05766,-0.03669l0.07841,-0.02614l0.03459,-0.0173l0.06671,-0.01483l0.05766,-0.03669l0.14242,-0.04747l0.07427,-0.00571l0.02753,-0.03212l0.03743,-0.00208l0.0186,-0.03255l0.21635,-0.05409l0.11861,-0.05931l0.06671,-0.01483l0.05766,-0.03669l0.06927,-0.02309l0.05233,-0.03488l0.04153,-0.08305l0.07121,-0.08308l0.02374,-0.10682l0.01183,-0.02366l0.00661,-0.02646l0.00926,-0.00529l0.01977,-0.03954l0.31847,-0.37154l0.4222,-0.02346l0.0611,-0.03491l0.05027,0.02873l0.42182,-0.02343l0.28482,0.42723l0.07388,0.04222l0.02744,0.10976l0.14463,0.21695l-0.05339,0.24025l0,0.00272l-0.00544,0.02175l-0.03754,0.16895l0.01665,0.06107l-0.06277,0.10461l-0.02959,0.11836l-0.06304,0.03602l-0.05437,0.09061l-0.14899,0.29799l-0.1219,0.14222l-0.01424,0.07119l-0.10293,0.0655l-0.0794,0.09263l-0.07249,0.00403l-0.15803,0.10057l-0.02179,0.00726l-0.03662,0.02442l-0.0565,0.02018l-0.04555,0.03905l-0.09495,0.04747l-0.06671,0.01483l-0.05766,0.03669l-0.07841,0.02614l-0.07413,0.03707l-0.00529,0.00926l-0.02646,0.00661l-0.02366,0.01183l-0.00047,0.0001l-0.0358,0.04177l-0.03743,0.00208l-0.0186,0.03255l-0.21635,0.05409l-0.02366,0.01183l-0.21261,0.04725l-0.00671,0.00427l-0.07841,0.02614l-0.03459,0.0173l-0.06671,0.01483l-0.05766,0.03669l-0.07841,0.02614l-0.07413,0.03707l-0.00529,0.00926l-0.02646,0.00661l-0.02366,0.01183l-0.21297,0.04733l-0.21165,0.05291l-0.02646,0l-0.02662,0.00592l-0.00887,-0.00592h-0.11629l-0.13867,0.04622l-0.15218,0.01171l-0.14807,0.03702l-0.04832,0l-0.13593,0.01046l-0.14807,0.03702h-2.94339l-0.1134,-0.02835h-0.11689l-0.0765,-0.01912h-0.02554l-0.1134,-0.02835h-0.11689l-0.1899,-0.04747l-0.01685,-0.00899l-0.13182,-0.01014h-0.04832l-0.14807,-0.03702l-0.13593,-0.01046h-0.00084l-0.00038,-0.00009l-0.01503,-0.00116l-0.03122,-0.01041l-0.06677,-0.01669h-0.11689l-0.1899,-0.04747l-0.03285,-0.01752l-0.02087,-0.00161h-0.04832l-0.14807,-0.03702l-0.13593,-0.01046h-0.00084l-0.00038,-0.00009l-0.01503,-0.00116l-0.03122,-0.01041l-0.10144,-0.02536l-0.15218,-0.01171l-0.14242,-0.04747l-0.05766,-0.03669l-0.06671,-0.01483l-0.21356,-0.10678l-0.12768,-0.03192l-0.04186,0.00289l-0.02026,-0.01842l-0.02656,-0.00664l-0.02082,-0.03643l-0.05657,-0.05143l-0.04162,-0.02497l-0.11836,-0.02959l-0.03602,-0.06304l-0.16062,-0.09637l-0.03347,-0.03347l-0.05208,-0.02604l-0.05886,-0.05045l-0.0473,-0.00263l-0.11869,-0.13847l-0.07121,-0.00396l-0.0794,-0.09263l-0.10293,-0.0655l-0.00805,-0.04023l-0.07454,-0.08696l-0.1429,-0.12249l-0.00263,-0.0473l-0.05045,-0.05886l-0.02104,-0.04208l-0.06216,-0.09324l-0.01285,-0.03598l-0.02793,-0.01596l-0.05187,-0.20749l-0.07193,-0.20142l0.01439,-0.02877l-0.00927,-0.03706v-0.74511l-0.00592,-0.00887l0.00592,-0.02662v-0.02646l0.05291,-0.21165l0.04733,-0.21297l0.00714,-0.01429c0.01706,-0.10455 0.0512,-0.20337 0.09945,-0.29349l0.0068,-0.02718l0.01252,-0.00715c0.16516,-0.27985 0.4698,-0.46759 0.81828,-0.46759c0.34848,0 0.65311,0.18774 0.81828,0.46759z" fill="#64311b" stroke="none" stroke-width="0.5"/></g></g></svg>