<svg version="1.1" xmlns="http://www.w3.org/2000/svg" xmlns:xlink="http://www.w3.org/1999/xlink" width="65.125" height="34.90546" viewBox="0,0,65.125,34.90546"><defs><linearGradient x1="224.89023" y1="170.13633" x2="224.89023" y2="177.21964" gradientUnits="userSpaceOnUse" id="color-1"><stop offset="0" stop-color="#e0daf2" stop-opacity="0.46667"/><stop offset="1" stop-color="#e0daf2" stop-opacity="0"/></linearGradient><linearGradient x1="261.375" y1="174.26923" x2="261.375" y2="178.38462" gradientUnits="userSpaceOnUse" id="color-2"><stop offset="0" stop-color="#e0daf2" stop-opacity="0.46667"/><stop offset="1" stop-color="#e0daf2" stop-opacity="0"/></linearGradient></defs><g transform="translate(-207.4375,-162.54727)"><g stroke-miterlimit="10"><path d="M252.6875,180c0,-4.79798 3.88952,-8.6875 8.6875,-8.6875c4.79798,0 8.6875,3.88952 8.6875,8.6875c0,4.79798 -3.88952,8.6875 -8.6875,8.6875c-4.79798,0 -8.6875,-3.88952 -8.6875,-8.6875z" fill="#424047" stroke="#0e0720" stroke-width="5" stroke-linecap="butt"/><path d="M209.9375,180c0,-8.25817 6.69455,-14.95273 14.95273,-14.95273c8.25817,0 14.95273,6.69455 14.95273,14.95273c0,8.25817 -6.69455,14.95273 -14.95273,14.95273c-8.25817,0 -14.95273,-6.69455 -14.95273,-14.95273z" fill="#424047" stroke="#0e0720" stroke-width="5" stroke-linecap="butt"/><path d="M227.5,194.75l33.91667,-6.08333" fill="none" stroke="#0e0720" stroke-width="5" stroke-linecap="round"/><path d="M227.5,165.25l33.91666,6.08334" fill="none" stroke="#0e0720" stroke-width="5" stroke-linecap="round"/><path d="M261.88247,185.13672l-1.39693,-5.04726l-0.67284,-5.01123l1.06574,-0.2193l1.32495,4.78453l0.74481,5.27395z" fill="#0e0720" stroke="none" stroke-width="0" stroke-linecap="butt"/><path d="M266.50899,179.48898l-5.04726,1.39693l-5.01124,0.67283l-0.2193,-1.06574l4.78455,-1.32495l5.27395,-0.74481z" fill="#0e0720" stroke="none" stroke-width="0" stroke-linecap="butt"/><path d="M226.30535,189.28485l-3.02236,-9.03726l-1.70317,-9.04123l1.9155,-0.50069l2.86639,8.56677l1.85916,9.51171z" fill="#0e0720" stroke="none" stroke-width="0" stroke-linecap="butt"/><path d="M234.17044,178.5788l-9.03726,3.02236l-9.04124,1.70318l-0.50069,-1.9155l8.56679,-2.86639l9.51171,-1.85916z" fill="#0e0720" stroke="none" stroke-width="0" stroke-linecap="butt"/><path d="M231.54323,173.67798c0,1.956 -2.97865,3.54165 -6.653,3.54165c-3.67435,0 -6.653,-1.58565 -6.653,-3.54165c0,-1.956 2.97865,-3.54165 6.653,-3.54165c3.67435,0 6.653,1.58565 6.653,3.54165z" fill="url(#color-1)" stroke="none" stroke-width="0" stroke-linecap="butt"/><path d="M265.24038,176.32692c0,1.13643 -1.73059,2.05769 -3.86538,2.05769c-2.13479,0 -3.86538,-0.92126 -3.86538,-2.05769c0,-1.13643 1.73059,-2.05769 3.86538,-2.05769c2.13479,0 3.86538,0.92126 3.86538,2.05769z" fill="url(#color-2)" stroke="none" stroke-width="0" stroke-linecap="butt"/></g></g></svg>