<svg version="1.1" xmlns="http://www.w3.org/2000/svg" xmlns:xlink="http://www.w3.org/1999/xlink" width="545.05301" height="433.15364" viewBox="0,0,545.05301,433.15364"><g transform="translate(26.51652,12.19219)"><g stroke="none" stroke-width="0" stroke-miterlimit="10"><path d="M-26.51651,372.19219v-384.38438h533.03303v384.38438z" fill="#b6cfd9"/><g fill="#676383"><path d="M419.70771,288.66159v-209.90722h72.59526v209.90722z"/><path d="M383.41007,308.92073v-209.90722h72.59526v209.90722z"/><path d="M325.44642,275.15549v-209.90722h72.59526v209.90722z"/><path d="M280.98886,308.92073v-209.90722h72.59526v209.90722z"/><path d="M226.96448,329.17987v-209.90722h72.59526v209.90722z"/><path d="M164.49879,282.53179v-217.28351h72.59526v217.28352z"/><path d="M104.84687,306.16746v-217.28351h72.59526v217.28351z"/><path d="M40.13017,292.34974v-217.28352h72.59526v217.28352z"/><path d="M-12.30296,309.23236v-217.28351h72.59526v217.28351z"/></g><g fill="#9c9ba7"><path d="M-9.01481,378.60072v-219.4521h75.8963v219.4521z"/><path d="M28.93334,399.78109v-219.4521h75.89631v219.4521z"/><path d="M89.53271,364.48048v-219.4521h75.89631v219.4521z"/><path d="M136.01184,399.78109v-219.4521h75.8963v219.4521z"/><path d="M192.49281,420.96145v-219.4521h75.89631v219.4521z"/><path d="M257.79893,372.19219v-227.16381h75.89631v227.16381z"/><path d="M320.16334,396.90262v-227.16381h75.8963v227.16381z"/><path d="M387.82283,382.45658v-227.16381h75.8963v227.16381z"/><path d="M442.64019,400.10688v-227.16381h75.8963v227.16381z"/></g></g></g></svg>