<svg version="1.1" xmlns="http://www.w3.org/2000/svg" xmlns:xlink="http://www.w3.org/1999/xlink" width="608.34711" height="453.12104" viewBox="0,0,608.34711,453.12104"><g transform="translate(64.17356,12.19219)"><g stroke="none" stroke-width="0" stroke-miterlimit="10"><path d="M-26.51652,372.19219v-384.38438h533.03303v384.38438z" fill="#b6cfd9"/><path d="M-48.28828,412.03677v-97.07667c0,0 48.54478,-22.94539 97.66501,-22.94539c17.58785,0 48.32971,15.95986 69.39685,17.45251c19.99608,1.41677 44.76041,-11.7742 71.19529,-6.65355c19.05748,3.69159 37.62714,22.57176 62.44984,23.92584c19.0623,1.03985 49.23291,-17.2637 77.19998,-20.90753c17.76704,-2.31487 40.86332,2.42616 57.47351,2.50561c27.47144,0.1314 46.38996,-3.29943 61.80307,-4.80218c47.76354,-4.65688 77.03963,11.42469 77.03963,11.42469v97.07667z" fill="#aab6e6"/><path d="M-64.17356,416.74352v-83.75242c0,0 48.54478,-19.79603 97.66501,-19.79603c17.58785,0 48.32971,13.76929 69.39686,15.05707c19.99608,1.22231 44.76041,-10.15813 71.19529,-5.74031c19.05749,3.18491 37.62714,19.47368 62.44984,20.6419c19.0623,0.89712 49.23291,-14.89417 77.19999,-18.03787c17.76703,-1.99714 40.86333,2.09316 57.47352,2.16171c27.47144,0.11336 46.38996,-2.84657 61.80307,-4.14306c47.76354,-4.0177 77.03963,9.8566 77.03963,9.8566v83.75242z" fill="#8c9ad1"/><path d="M-30.04964,440.92885v-83.75243c0,0 48.54478,-19.79602 97.66501,-19.79602c17.58785,0 48.32971,13.76929 69.39685,15.05707c19.99608,1.22231 44.76042,-10.15814 71.1953,-5.74032c19.05749,3.18491 37.62713,19.47368 62.44984,20.6419c19.06231,0.89712 49.23291,-14.89418 77.19998,-18.03787c17.76704,-1.99714 40.86333,2.09316 57.47352,2.1617c27.47144,0.11336 46.38996,-2.84656 61.80308,-4.14306c47.76354,-4.0177 77.03962,9.85659 77.03962,9.85659v83.75243z" fill="#5c6db1"/></g></g></svg>