<svg version="1.1" xmlns="http://www.w3.org/2000/svg" xmlns:xlink="http://www.w3.org/1999/xlink" width="669.53177" height="533.13721" viewBox="0,0,669.53177,533.13721"><defs><radialGradient cx="453.5687" cy="28.50157" r="189.44659" gradientUnits="userSpaceOnUse" id="color-1"><stop offset="0" stop-color="#deebac"/><stop offset="1" stop-color="#deebac" stop-opacity="0"/></radialGradient></defs><g transform="translate(26.51649,160.94502)"><g stroke="none" stroke-miterlimit="10"><g><path d="M-26.51649,372.19219v-384.38438h533.03303v384.38438z" fill="#b6cfd9" stroke-width="0"/><g><path d="M367.37639,28.50156c0,-47.6027 38.58961,-86.19231 86.19231,-86.19231c47.6027,0 86.19232,38.58961 86.19232,86.19231c0,47.6027 -38.58961,86.19232 -86.19231,86.19232c-47.6027,0 -86.19231,-38.58962 -86.19231,-86.19231z" fill="#deebac" stroke-width="0"/><path d="M264.1221,28.50155c0,-104.62846 84.81812,-189.44657 189.44658,-189.44657c104.62846,0 189.4466,84.81811 189.4466,189.44658c0,104.62846 -84.81812,189.4466 -189.44658,189.4466c-104.62846,0 -189.44657,-84.81814 -189.44657,-189.44657z" fill="url(#color-1)" stroke-width="0"/><path d="M432.94985,27.16248c-0.31009,2.4807 -2.79079,2.17061 -2.79079,2.17061l-1.80315,-0.22749c-4.59593,-0.7663 -8.97958,-1.02989 -13.63249,-1.02989c0,0 -1.67483,0 -2.28281,-1.37083c-0.27319,-0.10093 -0.52685,-0.24435 -0.75356,-0.44191c-4.43099,-3.86108 1.69883,-11.68661 6.21404,-9.54669c1.56164,0.14451 3.00734,1.03469 3.82558,3.03925c0.58056,1.4223 0.5488,2.6012 0.13652,3.55733c2.4269,0.17269 4.84515,0.44934 7.31472,0.86077l1.60133,0.19807c0,0 2.4807,0.31008 2.17061,2.79078z" fill="#474940" stroke-width="0.5"/><path d="M464.46061,26.8524c0,2.5 -2.5,2.5 -2.5,2.5l-1.46843,-0.00737c-5.95018,-0.45772 -11.90544,-0.45218 -17.82256,-1.29444c0,0 -1.92597,-0.27515 -2.13716,-2.03901c-0.78932,-2.04824 0.40611,-5.6689 1.65824,-7.73589c0,0 1.31905,-2.0728 3.39675,-0.80105c0.74829,-0.13946 1.48579,-0.09754 2.13932,0.22006c2.12529,1.03283 2.0113,3.77011 1.08991,5.97547c4.01265,0.29483 8.03885,0.38037 12.05899,0.6896l1.08494,-0.00737c0,0 2.5,0 2.5,2.5z" fill="#474940" stroke-width="0.5"/><path d="M438.24011,60.3236c-0.49029,2.45145 -2.94174,1.96117 -2.94174,1.96117l-1.99106,-0.40214c-1.15834,-0.18308 -2.39454,-0.09339 -3.47503,-0.54925c-6.09947,-2.57336 -5.28662,-7.50973 -4.38246,-12.97562c0,0 0.05827,-0.34962 0.26257,-0.76363c-6.90008,-0.55422 -13.66956,-2.09291 -19.83893,-5.29664c-0.69093,3.45168 -0.28217,7.18731 1.52175,9.57093c0.64652,0.30094 1.31703,0.92515 1.31703,2.21984c0,2.5 -2.5,2.5 -2.5,2.5l-2.0813,-0.83909c-5.87303,-6.88027 -4.05753,-19.72291 3.20101,-24.987c0,0 2.04808,-1.43366 3.48174,0.61442c1.43365,2.04808 -0.61442,3.48174 -0.61442,3.48174c-0.99034,0.6572 -1.84243,1.60579 -2.5363,2.7353c10.8154,5.93746 24.0643,5.7887 35.98001,4.64303c1.92177,-0.18478 3.88311,0.11847 5.78874,-0.19122c2.95523,-0.48027 5.80382,-1.31213 8.79403,-1.71259l0.17819,-0.10642c0,0 0.01506,-0.00502 0.04318,-0.01306c0.25712,-0.60911 0.53064,-1.22167 0.81205,-1.84144c0,0 1.03451,-2.27592 3.31042,-1.24141c2.27591,1.03451 1.24141,3.31043 1.24141,3.31043c-2.52017,5.53786 -2.3422,8.20052 0.55716,13.51409l0.73651,1.08706c0,0 1.38675,2.08013 -0.69338,3.46688c-2.08013,1.38675 -3.46688,-0.69338 -3.46688,-0.69338l-0.96573,-1.4663c-0.52803,-0.9684 -2.47944,-4.46193 -2.74491,-5.34566c-0.57097,-1.90075 -0.65132,-3.66556 -0.4176,-5.37232c-2.20508,0.42545 -4.36081,0.99861 -6.58355,1.34956c-2.0188,0.31876 -4.09277,0.03614 -6.12694,0.23433c-4.5347,0.44181 -9.19854,0.71308 -13.84984,0.60846c0.23618,0.69477 0.12596,1.35609 0.12596,1.35609c-0.23944,1.42489 -1.49041,5.36468 -0.44896,6.62319c0.85305,1.03083 3.06725,1.00662 4.08159,1.12995l2.26454,0.44898c0,0 2.45145,0.49029 1.96116,2.94174z" fill="#474940" stroke-width="0.5"/></g></g></g></g></svg>