<svg version="1.1" xmlns="http://www.w3.org/2000/svg" xmlns:xlink="http://www.w3.org/1999/xlink" width="65.125" height="34.90546" viewBox="0,0,65.125,34.90546"><defs><linearGradient x1="224.89023" y1="170.13633" x2="224.89023" y2="177.21964" gradientUnits="userSpaceOnUse" id="color-1"><stop offset="0" stop-color="#e0daf2" stop-opacity="0.46667"/><stop offset="1" stop-color="#e0daf2" stop-opacity="0"/></linearGradient><linearGradient x1="261.375" y1="174.26923" x2="261.375" y2="178.38462" gradientUnits="userSpaceOnUse" id="color-2"><stop offset="0" stop-color="#e0daf2" stop-opacity="0.46667"/><stop offset="1" stop-color="#e0daf2" stop-opacity="0"/></linearGradient></defs><g transform="translate(-207.4375,-162.54727)"><g stroke-miterlimit="10"><path d="M252.6875,180c0,-4.79798 3.88952,-8.6875 8.6875,-8.6875c4.79798,0 8.6875,3.88952 8.6875,8.6875c0,4.79798 -3.88952,8.6875 -8.6875,8.6875c-4.79798,0 -8.6875,-3.88952 -8.6875,-8.6875z" fill="#424047" stroke="#0e0720" stroke-width="5" stroke-linecap="butt"/><path d="M209.9375,180c0,-8.25817 6.69455,-14.95273 14.95273,-14.95273c8.25817,0 14.95273,6.69455 14.95273,14.95273c0,8.25817 -6.69455,14.95273 -14.95273,14.95273c-8.25817,0 -14.95273,-6.69455 -14.95273,-14.95273z" fill="#424047" stroke="#0e0720" stroke-width="5" stroke-linecap="butt"/><path d="M227.5,194.75l33.91667,-6.08333" fill="none" stroke="#0e0720" stroke-width="5" stroke-linecap="round"/><path d="M227.5,165.25l33.91666,6.08334" fill="none" stroke="#0e0720" stroke-width="5" stroke-linecap="round"/><path d="M264.62724,184.00921l-3.94298,-3.44661l-3.31846,-3.81483l0.76938,-0.76938l3.73835,3.2668l3.52309,3.99464z" fill="#0e0720" stroke="none" stroke-width="0" stroke-linecap="butt"/><path d="M265.38421,176.74776l-3.44661,3.94298l-3.81484,3.31847l-0.76938,-0.76938l3.26681,-3.73836l3.99464,-3.52309z" fill="#0e0720" stroke="none" stroke-width="0" stroke-linecap="butt"/><path d="M230.808,187.29516l-7.17465,-6.27145l-6.03827,-6.94147l1.39997,-1.39997l6.80231,5.94426l6.41061,7.26865z" fill="#0e0720" stroke="none" stroke-width="0" stroke-linecap="butt"/><path d="M232.18538,174.08222l-6.27145,7.17465l-6.94148,6.03828l-1.39997,-1.39997l5.94428,-6.80232l7.26865,-6.41061z" fill="#0e0720" stroke="none" stroke-width="0" stroke-linecap="butt"/><path d="M231.54323,173.67798c0,1.956 -2.97865,3.54165 -6.653,3.54165c-3.67435,0 -6.653,-1.58565 -6.653,-3.54165c0,-1.956 2.97865,-3.54165 6.653,-3.54165c3.67435,0 6.653,1.58565 6.653,3.54165z" fill="url(#color-1)" stroke="none" stroke-width="0" stroke-linecap="butt"/><path d="M265.24038,176.32692c0,1.13643 -1.73059,2.05769 -3.86538,2.05769c-2.13479,0 -3.86538,-0.92126 -3.86538,-2.05769c0,-1.13643 1.73059,-2.05769 3.86538,-2.05769c2.13479,0 3.86538,0.92126 3.86538,2.05769z" fill="url(#color-2)" stroke="none" stroke-width="0" stroke-linecap="butt"/></g></g></svg>